<svg version="1.1" id="Layer_1" xmlns="http://www.w3.org/2000/svg" xmlns:xlink="http://www.w3.org/1999/xlink" x="0px" y="0px"
	 width="100%" viewBox="0 0 150 150" enable-background="new 0 0 150 150" xml:space="preserve">
<path fill="#000000" opacity="1.000000" stroke="none" 
	d="
M71.000000,1.000001 
	C97.637688,1.000000 124.275383,1.000000 150.956543,1.000000 
	C150.956543,50.916660 150.956543,100.833366 150.956543,150.875031 
	C101.000214,150.875031 51.000153,150.875031 1.000000,150.875031 
	C1.000000,143.588135 1.000000,136.262802 1.307861,128.322906 
	C14.248414,117.557053 22.505228,105.176216 21.755066,88.449974 
	C31.484669,86.154709 40.223679,89.508110 48.772377,93.436096 
	C52.267483,95.042046 55.911537,96.806572 58.706329,99.355751 
	C64.973793,105.072426 67.359016,112.982697 68.952934,120.999565 
	C70.949905,131.043686 74.702141,139.813477 84.405746,144.664734 
	C85.991951,145.457764 88.075989,145.254974 89.929939,145.512421 
	C89.960777,143.721985 90.558655,141.696243 89.929298,140.179794 
	C86.192711,131.176392 82.171936,122.290932 77.602364,111.900818 
	C83.421883,115.045135 88.253334,117.021477 92.343269,120.011978 
	C98.696281,124.657227 104.221550,130.464462 110.699417,134.900421 
	C116.926704,139.164795 123.251175,143.939789 131.414825,143.928604 
	C132.881668,143.926605 135.470993,143.169479 135.588272,142.444794 
	C135.864487,140.738007 135.549561,138.239014 134.421844,137.135849 
	C131.385681,134.165817 127.850555,131.689087 124.419243,129.143600 
	C118.983719,125.111305 113.471451,121.182449 107.991653,117.209824 
	C108.177345,116.800316 108.363037,116.390808 108.548721,115.981300 
	C110.297737,115.981300 112.159264,116.369644 113.772820,115.902130 
	C117.361641,114.862297 121.839439,114.581306 121.908463,108.827667 
	C122.382492,107.995621 122.762276,107.474648 123.461189,106.837906 
	C125.133644,104.964401 129.697800,105.249542 127.840607,101.613708 
	C124.055183,102.157692 120.662697,102.645203 117.270218,103.132721 
	C117.147118,102.495239 117.024010,101.857765 116.900909,101.220291 
	C119.277359,100.481964 121.630257,99.209671 124.034599,99.103592 
	C131.812271,98.760452 138.181488,96.099136 143.471420,90.148262 
	C148.795670,84.158775 149.202240,84.249748 143.392578,79.044930 
	C140.405090,76.368462 137.141769,73.266327 133.472855,72.225380 
	C123.557678,69.412201 113.778519,71.044601 104.362122,75.244606 
	C92.521057,80.526093 86.220459,81.716873 78.784149,80.461143 
	C80.024414,80.034378 81.205482,79.612831 82.396194,79.220528 
	C102.062721,72.740944 113.109695,58.066822 119.947365,39.500858 
	C121.568535,35.098969 122.962616,30.553167 123.796112,25.953064 
	C124.101715,24.266432 122.956039,21.379313 121.591782,20.618164 
	C120.458313,19.985771 117.447815,21.139385 116.292847,22.423157 
	C112.980896,26.104471 110.189049,30.253706 107.192741,34.218998 
	C107.031021,34.156185 106.869301,34.093369 106.707581,34.030556 
	C108.421661,29.548691 110.135742,25.066826 112.157784,19.779726 
	C109.734787,20.166332 107.201233,19.812073 105.861366,20.911947 
	C99.031319,26.518652 92.351730,32.147068 87.816376,40.175255 
	C81.742271,50.927242 77.866699,63.960018 63.414619,67.516418 
	C62.237110,67.806183 61.666065,70.560432 60.158859,73.404106 
	C48.984646,79.060028 22.129784,81.759987 15.741702,77.324417 
	C18.206205,76.668449 20.718729,76.014763 23.222931,75.330605 
	C35.546410,71.963799 44.172634,62.814590 53.878067,55.443832 
	C61.291107,49.814022 63.154350,41.421185 62.792870,32.584293 
	C62.752201,31.590149 60.072235,29.966793 58.608776,29.958607 
	C56.863392,29.948843 55.051052,31.258991 53.370182,32.183613 
	C45.557247,36.481392 42.390732,44.469002 39.859207,51.974239 
	C35.527256,64.817238 25.852003,68.689697 13.769282,70.825203 
	C14.675583,68.746689 15.372474,67.108513 16.100988,65.484520 
	C19.392742,58.146626 19.070759,53.359169 15.152050,49.604877 
	C26.473494,44.568127 35.873112,37.287888 44.527256,28.894030 
	C49.671680,23.904333 55.199421,19.295269 60.161232,14.136515 
	C64.085182,10.056826 67.409439,5.400342 71.000000,1.000001 
z"/>
<path fill="#01B0EF" opacity="1.000000" stroke="none" 
	d="
M121.814224,109.138748 
	C121.839439,114.581306 117.361641,114.862297 113.772820,115.902130 
	C112.159264,116.369644 110.297737,115.981300 108.548721,115.981300 
	C108.363037,116.390808 108.177345,116.800316 107.991653,117.209824 
	C113.471451,121.182449 118.983719,125.111305 124.419243,129.143600 
	C127.850555,131.689087 131.385681,134.165817 134.421844,137.135849 
	C135.549561,138.239014 135.864487,140.738007 135.588272,142.444794 
	C135.470993,143.169479 132.881668,143.926605 131.414825,143.928604 
	C123.251175,143.939789 116.926704,139.164795 110.699417,134.900421 
	C104.221550,130.464462 98.696281,124.657227 92.343269,120.011978 
	C88.253334,117.021477 83.421883,115.045135 77.602364,111.900818 
	C82.171936,122.290932 86.192711,131.176392 89.929298,140.179794 
	C90.558655,141.696243 89.960777,143.721985 89.929939,145.512421 
	C88.075989,145.254974 85.991951,145.457764 84.405746,144.664734 
	C74.702141,139.813477 70.949905,131.043686 68.952934,120.999565 
	C67.359016,112.982697 64.973793,105.072426 58.706329,99.355751 
	C55.911537,96.806572 52.267483,95.042046 48.772377,93.436096 
	C40.223679,89.508110 31.484669,86.154709 21.755066,88.449974 
	C22.505228,105.176216 14.248414,117.557053 1.307861,127.854179 
	C1.000000,125.958336 1.000000,123.916664 1.232651,121.775879 
	C10.493020,113.957840 13.744479,103.318245 15.844715,92.277977 
	C16.245544,90.170944 14.766607,85.840935 13.614173,85.640137 
	C9.530371,84.928581 5.342281,80.325996 1.000000,85.000000 
	C1.000000,76.979103 1.000000,68.958199 1.242064,60.806854 
	C3.296709,58.144039 5.109291,55.611671 7.232174,52.898045 
	C10.042715,51.792324 12.542954,50.867855 15.043194,49.943386 
	C19.070759,53.359169 19.392742,58.146626 16.100988,65.484520 
	C15.372474,67.108513 14.675583,68.746689 13.769282,70.825203 
	C25.852003,68.689697 35.527256,64.817238 39.859207,51.974239 
	C42.390732,44.469002 45.557247,36.481392 53.370182,32.183613 
	C55.051052,31.258991 56.863392,29.948843 58.608776,29.958607 
	C60.072235,29.966793 62.752201,31.590149 62.792870,32.584293 
	C63.154350,41.421185 61.291107,49.814022 53.878067,55.443832 
	C44.172634,62.814590 35.546410,71.963799 23.222931,75.330605 
	C20.718729,76.014763 18.206205,76.668449 15.741702,77.324417 
	C22.129784,81.759987 48.984646,79.060028 60.158859,73.404106 
	C61.666065,70.560432 62.237110,67.806183 63.414619,67.516418 
	C77.866699,63.960018 81.742271,50.927242 87.816376,40.175255 
	C92.351730,32.147068 99.031319,26.518652 105.861366,20.911947 
	C107.201233,19.812073 109.734787,20.166332 112.157784,19.779726 
	C110.135742,25.066826 108.421661,29.548691 106.707581,34.030556 
	C106.869301,34.093369 107.031021,34.156185 107.192741,34.218998 
	C110.189049,30.253706 112.980896,26.104471 116.292847,22.423157 
	C117.447815,21.139385 120.458313,19.985771 121.591782,20.618164 
	C122.956039,21.379313 124.101715,24.266432 123.796112,25.953064 
	C122.962616,30.553167 121.568535,35.098969 119.947365,39.500858 
	C113.109695,58.066822 102.062721,72.740944 82.396194,79.220528 
	C81.205482,79.612831 80.024414,80.034378 78.784149,80.461143 
	C86.220459,81.716873 92.521057,80.526093 104.362122,75.244606 
	C113.778519,71.044601 123.557678,69.412201 133.472855,72.225380 
	C137.141769,73.266327 140.405090,76.368462 143.392578,79.044930 
	C149.202240,84.249748 148.795670,84.158775 143.471420,90.148262 
	C138.181488,96.099136 131.812271,98.760452 124.034599,99.103592 
	C121.630257,99.209671 119.277359,100.481964 116.900909,101.220291 
	C117.024010,101.857765 117.147118,102.495239 117.270218,103.132721 
	C120.662697,102.645203 124.055183,102.157692 127.840607,101.613708 
	C129.697800,105.249542 125.133644,104.964401 123.129547,106.580406 
	C118.208885,105.674660 113.959236,104.556595 109.659760,104.311119 
	C107.792976,104.204536 105.823692,105.893387 103.900963,106.766754 
	C104.101036,107.182014 104.301102,107.597275 104.501167,108.012535 
	C105.660034,108.012535 106.818893,108.012535 107.935616,108.335892 
	C106.987579,110.071388 106.081696,111.483543 104.357971,114.170593 
	C109.080330,112.476479 112.550278,111.231659 116.324203,110.132492 
	C118.356857,109.898346 120.085541,109.518539 121.814224,109.138748 
M83.998566,67.482864 
	C94.957504,61.650692 99.827385,51.382526 104.401672,40.899014 
	C104.066505,40.643059 103.731339,40.387104 103.396164,40.131145 
	C95.142166,49.727390 86.888168,59.323635 78.634171,68.919876 
	C78.922981,69.158524 79.211792,69.397163 79.500595,69.635803 
	C80.805428,69.067390 82.110252,68.498970 83.998566,67.482864 
M81.576752,95.981941 
	C79.263748,95.209770 76.950737,94.437599 74.637733,93.665421 
	C74.477295,94.179657 74.316864,94.693893 74.156425,95.208122 
	C83.037216,99.401657 91.980736,103.383484 102.471466,102.169716 
	C95.773705,100.136055 89.075935,98.102402 81.576752,95.981941 
z"/>
<path fill="#00DEE3" opacity="1.000000" stroke="none" 
	d="
M15.152050,49.604877 
	C12.542954,50.867855 10.042715,51.792324 6.845942,52.862339 
	C4.432940,53.338593 2.716470,53.669296 1.000000,54.000000 
	C1.000000,49.643101 1.000000,45.286201 1.276598,40.872242 
	C2.291742,38.623108 3.030286,36.431034 4.223699,32.888870 
	C5.663713,35.151703 6.753379,36.863998 7.825245,38.548321 
	C15.908757,34.228756 20.232010,27.710638 20.486269,21.035982 
	C14.189454,25.225189 7.594727,29.612595 1.000000,34.000000 
	C1.000000,23.069216 1.000000,12.138432 1.000000,1.000000 
	C13.020098,1.000000 25.041391,1.000000 37.441544,1.336775 
	C37.089512,2.717982 36.549576,3.999286 35.596256,4.767804 
	C30.054686,9.235139 27.644073,15.340309 25.971512,21.987595 
	C24.124046,29.329990 20.823263,35.867847 14.094088,40.511246 
	C13.687455,41.068989 13.509900,41.425247 13.332346,41.781502 
	C13.901334,41.535572 14.470321,41.289642 15.409267,41.001247 
	C21.656240,37.300541 28.077549,34.281307 33.289284,29.842030 
	C42.265488,22.196226 50.211620,13.488675 52.000000,1.000000 
	C58.021152,1.000000 64.042305,1.000000 70.531731,1.000001 
	C67.409439,5.400342 64.085182,10.056826 60.161232,14.136515 
	C55.199421,19.295269 49.671680,23.904333 44.527256,28.894030 
	C35.873112,37.287888 26.473494,44.568127 15.152050,49.604877 
M10.994366,15.499022 
	C9.624811,17.795242 8.255257,20.091461 6.885703,22.387680 
	C7.198753,22.680424 7.511804,22.973167 7.824854,23.265911 
	C11.092241,20.480297 14.178335,17.437914 17.671247,14.971716 
	C22.423035,11.616680 20.723633,8.131637 18.657173,3.811646 
	C16.075876,7.880859 13.813420,11.447446 10.994366,15.499022 
z"/>
<path fill="#000000" opacity="1.000000" stroke="none" 
	d="
M14.323166,40.309757 
	C20.823263,35.867847 24.124046,29.329990 25.971512,21.987595 
	C27.644073,15.340309 30.054686,9.235139 35.596256,4.767804 
	C36.549576,3.999286 37.089512,2.717982 37.910202,1.336775 
	C42.356899,1.000000 46.713799,1.000000 51.535347,1.000000 
	C50.211620,13.488675 42.265488,22.196226 33.289284,29.842030 
	C28.077549,34.281307 21.656240,37.300541 15.232746,40.815308 
	C14.565232,40.551140 14.444200,40.430450 14.323166,40.309757 
z"/>
<path fill="#000000" opacity="1.000000" stroke="none" 
	d="
M1.000000,85.468658 
	C5.342281,80.325996 9.530371,84.928581 13.614173,85.640137 
	C14.766607,85.840935 16.245544,90.170944 15.844715,92.277977 
	C13.744479,103.318245 10.493020,113.957840 1.232651,121.338379 
	C1.000000,109.312439 1.000000,97.624878 1.000000,85.468658 
z"/>
<path fill="#000000" opacity="1.000000" stroke="none" 
	d="
M1.000000,34.428463 
	C7.594727,29.612595 14.189454,25.225189 20.486269,21.035982 
	C20.232010,27.710638 15.908757,34.228756 7.825245,38.548321 
	C6.753379,36.863998 5.663713,35.151703 4.223699,32.888870 
	C3.030286,36.431034 2.291742,38.623108 1.276598,40.407593 
	C1.000000,38.285641 1.000000,36.571285 1.000000,34.428463 
z"/>
<path fill="#000000" opacity="1.000000" stroke="none" 
	d="
M1.000000,54.428463 
	C2.716470,53.669296 4.432940,53.338593 6.535641,53.043594 
	C5.109291,55.611671 3.296709,58.144039 1.242064,60.338203 
	C1.000000,58.285641 1.000000,56.571285 1.000000,54.428463 
z"/>
<path fill="#17A8CE" opacity="1.000000" stroke="none" 
	d="
M121.908463,108.827667 
	C120.085541,109.518539 118.356857,109.898346 115.998383,110.036514 
	C113.269394,107.689651 110.958206,106.463493 107.977760,108.012535 
	C106.818893,108.012535 105.660034,108.012535 104.501167,108.012535 
	C104.301102,107.597275 104.101036,107.182014 103.900963,106.766754 
	C105.823692,105.893387 107.792976,104.204536 109.659760,104.311119 
	C113.959236,104.556595 118.208885,105.674660 122.810410,106.696175 
	C122.762276,107.474648 122.382492,107.995621 121.908463,108.827667 
z"/>
<path fill="#000000" opacity="1.000000" stroke="none" 
	d="
M83.706818,67.706711 
	C82.110252,68.498970 80.805428,69.067390 79.500595,69.635803 
	C79.211792,69.397163 78.922981,69.158524 78.634171,68.919876 
	C86.888168,59.323635 95.142166,49.727390 103.396164,40.131145 
	C103.731339,40.387104 104.066505,40.643059 104.401672,40.899014 
	C99.827385,51.382526 94.957504,61.650692 83.706818,67.706711 
z"/>
<path fill="#000000" opacity="1.000000" stroke="none" 
	d="
M81.977463,96.025345 
	C89.075935,98.102402 95.773705,100.136055 102.471466,102.169716 
	C91.980736,103.383484 83.037216,99.401657 74.156425,95.208122 
	C74.316864,94.693893 74.477295,94.179657 74.637733,93.665421 
	C76.950737,94.437599 79.263748,95.209770 81.977463,96.025345 
z"/>
<path fill="#1197C7" opacity="1.000000" stroke="none" 
	d="
M107.935616,108.335892 
	C110.958206,106.463493 113.269394,107.689651 115.694412,109.890854 
	C112.550278,111.231659 109.080330,112.476479 104.357971,114.170593 
	C106.081696,111.483543 106.987579,110.071388 107.935616,108.335892 
z"/>
<path fill="#000000" opacity="1.000000" stroke="none" 
	d="
M11.272665,15.256527 
	C13.813420,11.447446 16.075876,7.880859 18.657173,3.811646 
	C20.723633,8.131637 22.423035,11.616680 17.671247,14.971716 
	C14.178335,17.437914 11.092241,20.480297 7.824854,23.265911 
	C7.511804,22.973167 7.198753,22.680424 6.885703,22.387680 
	C8.255257,20.091461 9.624811,17.795242 11.272665,15.256527 
z"/>
<path fill="#000000" opacity="1.000000" stroke="none" 
	d="
M14.862785,40.857773 
	C14.470321,41.289642 13.901334,41.535572 13.332346,41.781502 
	C13.509900,41.425247 13.687455,41.068989 14.094088,40.511246 
	C14.444200,40.430450 14.565232,40.551140 14.862785,40.857773 
z"/>
</svg>